<svg width="18" height="15" viewBox="0 0 18 15" fill="none" xmlns="http://www.w3.org/2000/svg">
<path d="M13.8632 1.60905H5.04852C4.77545 1.60905 4.55409 1.38769 4.55409 1.11463V0.867233C4.55409 0.588829 4.32839 0.363129 4.04999 0.363129H1.3993C0.842489 0.363129 0.391088 0.814496 0.391088 1.37134V9.85472L1.68471 3.56112C1.73197 3.33121 1.93431 3.16622 2.16902 3.16622H14.8714V2.61726C14.8714 2.06042 14.42 1.60905 13.8632 1.60905Z" fill="#51459E"/>
<path d="M16.4723 4.15521H2.57233L0.62684 13.62C0.563022 13.9306 0.800204 14.2215 1.11726 14.2215H15.5817C16.0957 14.2215 16.5273 13.835 16.5838 13.3241L17.4744 5.2743C17.5405 4.67721 17.073 4.15521 16.4723 4.15521Z" fill="#51459E"/>
</svg>
