<svg width="203" height="126" viewBox="0 0 203 126" fill="none" xmlns="http://www.w3.org/2000/svg">
<path d="M196.121 121.46C199.607 121.46 202.431 118.67 202.431 115.226C198.946 115.226 196.121 118.017 196.121 121.46Z" fill="#84E8F4"/>
<path d="M172.387 80.4407C172.387 84.7616 175.932 88.258 180.299 88.258C180.299 83.9436 176.753 80.4407 172.387 80.4407Z" fill="#B3B3B3"/>
<path d="M170.21 33.7545C164.321 33.7545 159.547 38.4713 159.547 44.2898C165.436 44.2898 170.21 39.573 170.21 33.7545Z" fill="#84E8F4"/>
<path d="M161.49 47.0143C161.49 50.7085 164.521 53.6969 168.254 53.6969C168.26 50.0027 165.229 47.0143 161.49 47.0143Z" fill="#84E8F4"/>
<path d="M156.676 47.1265C153.064 47.1265 150.14 50.0159 150.14 53.5848C153.752 53.5848 156.676 50.6954 156.676 47.1265Z" fill="#DEE1E6"/>
<path d="M192.336 9.50424C192.336 4.56316 188.283 0.552246 183.276 0.552246C183.282 5.49992 187.335 9.50424 192.336 9.50424Z" fill="#84E8F4"/>
<path d="M110.407 24.8618C107.243 24.8618 104.672 27.4016 104.672 30.5286C107.843 30.522 110.407 27.9887 110.407 24.8618Z" fill="#84E8F4"/>
<path d="M192.971 56.5864C187.269 56.5864 182.649 61.1515 182.649 66.7852C188.351 66.7852 192.971 62.2202 192.971 56.5864Z" fill="#84E8F4"/>
<path d="M156.964 1.51538C153.038 1.51538 149.853 4.6621 149.853 8.54108C153.779 8.54108 156.964 5.39436 156.964 1.51538Z" fill="#DEE1E6"/>
<path d="M204.721 -0.351562C198.705 -0.351562 193.824 4.47078 193.824 10.4146C199.847 10.4146 204.721 5.59225 204.721 -0.351562Z" fill="#84E8F4"/>
<path d="M193.545 101.346C193.545 107.607 198.679 112.68 205.008 112.68C205.008 106.419 199.874 101.346 193.545 101.346Z" fill="#DEE1E6"/>
<path d="M196.062 98.8527C199.607 98.8527 202.485 96.0094 202.485 92.5065C198.94 92.5065 196.062 95.3497 196.062 98.8527Z" fill="#84E8F4"/>
<path d="M147.102 56.5864C141.4 56.5864 136.78 61.1515 136.78 66.7852C142.482 66.7852 147.102 62.2202 147.102 56.5864Z" fill="#DEE1E6"/>
<path d="M138.556 47.0143C138.556 50.7085 141.587 53.6969 145.32 53.6969C145.326 50.0027 142.295 47.0143 138.556 47.0143Z" fill="#DEE1E6"/>
<path d="M161.951 92.7903C161.951 95.9832 164.568 98.5692 167.799 98.5692C167.799 95.3763 165.182 92.7903 161.951 92.7903Z" fill="#84E8F4"/>
<path d="M183.684 46.2754C183.684 50.7811 187.383 54.4358 191.943 54.4358C191.936 49.9301 188.244 46.2754 183.684 46.2754Z" fill="#84E8F4"/>
<path d="M193.545 56.019C193.545 62.2795 198.679 67.3525 205.008 67.3525C205.008 61.0921 199.874 56.019 193.545 56.019Z" fill="#DEE1E6"/>
<path d="M195.261 54.3236C199.694 54.3236 203.286 50.7745 203.286 46.3942C198.853 46.3876 195.261 49.9433 195.261 54.3236Z" fill="#84E8F4"/>
<path d="M196.182 35.9645C196.182 39.3421 198.953 42.0864 202.371 42.0864C202.371 38.7022 199.6 35.9645 196.182 35.9645Z" fill="#B3B3B3"/>
<path d="M137.067 22.8762C137.067 28.1933 141.433 32.5077 146.815 32.5077C146.815 27.1906 142.448 22.8762 137.067 22.8762Z" fill="#84E8F4"/>
<path d="M122.732 12.6774C118.613 12.6774 115.281 15.9758 115.281 20.0461C119.401 20.0461 122.732 16.7477 122.732 12.6774Z" fill="#DEE1E6"/>
<path d="M115.855 24.5781C115.855 28.0217 118.68 30.8122 122.165 30.8122C122.165 27.3686 119.341 24.5781 115.855 24.5781Z" fill="#84E8F4"/>
<path d="M135.064 23.1598C129.996 23.1598 125.89 27.2169 125.89 32.2239C130.958 32.2239 135.064 28.1668 135.064 23.1598Z" fill="#B3B3B3"/>
<path d="M182.361 21.7415C188.377 21.7415 193.258 16.9192 193.258 10.9753C187.242 10.9753 182.361 15.7977 182.361 21.7415Z" fill="#DEE1E6"/>
<path d="M180.472 43.1023C180.472 38.5966 176.773 34.9419 172.213 34.9419C172.213 39.4476 175.912 43.1023 180.472 43.1023Z" fill="#DEE1E6"/>
<path d="M193.484 33.4114C187.215 33.4114 182.134 38.4316 182.134 44.6327C188.403 44.6327 193.484 39.6125 193.484 33.4114Z" fill="#84E8F4"/>
<path d="M184.138 24.0636C184.138 28.0679 187.422 31.3136 191.475 31.3136C191.475 27.3159 188.19 24.0636 184.138 24.0636Z" fill="#B3B3B3"/>
<path d="M145.266 13.0732C141.594 13.0732 138.616 16.0155 138.616 19.6438C142.289 19.6438 145.266 16.7015 145.266 13.0732Z" fill="#84E8F4"/>
<path d="M135.004 20.8377C135.004 15.8967 130.951 11.8857 125.944 11.8857C125.944 16.8268 130.003 20.8377 135.004 20.8377Z" fill="#DEE1E6"/>
<path d="M169.635 11.6549C164.381 11.6549 160.121 15.8637 160.121 21.0621C165.376 21.0621 169.635 16.8533 169.635 11.6549Z" fill="#84E8F4"/>
<path d="M180.699 20.6662C180.699 15.9098 176.799 12.0573 171.986 12.0573C171.986 16.8136 175.885 20.6662 180.699 20.6662Z" fill="#84E8F4"/>
<path d="M168.714 80.553C164.468 80.553 161.03 83.9504 161.03 88.146C165.276 88.146 168.714 84.7486 168.714 80.553Z" fill="#DEE1E6"/>
<path d="M161.951 70.1299C161.951 73.3228 164.568 75.9088 167.799 75.9088C167.799 72.7159 165.182 70.1299 161.951 70.1299Z" fill="#84E8F4"/>
<path d="M157.25 69.2195C153.004 69.2195 149.566 72.6169 149.566 76.8125C153.812 76.8125 157.25 73.4151 157.25 69.2195Z" fill="#DEE1E6"/>
</svg>
