<svg width="16" height="4" viewBox="0 0 16 4" fill="none" xmlns="http://www.w3.org/2000/svg">
<path d="M2.41342 3.98883C3.40691 3.98883 4.2123 3.18345 4.2123 2.18995C4.2123 1.19645 3.40691 0.391068 2.41342 0.391068C1.41992 0.391068 0.614532 1.19645 0.614532 2.18995C0.614532 3.18345 1.41992 3.98883 2.41342 3.98883Z" fill="#3246D3"/>
<path d="M7.81033 3.98879C8.80382 3.98879 9.60921 3.1834 9.60921 2.1899C9.60921 1.19641 8.80382 0.391022 7.81033 0.391022C6.81683 0.391022 6.01144 1.19641 6.01144 2.1899C6.01144 3.1834 6.81683 3.98879 7.81033 3.98879Z" fill="#3246D3"/>
<path d="M13.207 3.98879C14.2005 3.98879 15.0058 3.1834 15.0058 2.1899C15.0058 1.19641 14.2005 0.391022 13.207 0.391022C12.2135 0.391022 11.4081 1.19641 11.4081 2.1899C11.4081 3.1834 12.2135 3.98879 13.207 3.98879Z" fill="#3246D3"/>
</svg>
